<?xml version="1.0" encoding="utf-8"?>
<!-- Generator: Adobe Illustrator 22.0.1, SVG Export Plug-In . SVG Version: 6.00 Build 0)  -->
<svg version="1.1" id="Слой_1" xmlns="http://www.w3.org/2000/svg" xmlns:xlink="http://www.w3.org/1999/xlink" x="0px" y="0px"
	 viewBox="0 0 512 512" style="enable-background:new 0 0 512 512;" xml:space="preserve">
<path d="M512,464V144c0-26.5-21.5-48-48-48h-48V48c0-26.5-21.5-48-48-48L48,0C21.5,0,0,21.5,0,48l0,320c0,26.5,21.5,48,48,48h48v48
	c0,26.5,21.5,48,48,48h320C490.5,512,512,490.5,512,464z M368,54v42H144c-26.5,0-48,21.5-48,48v224H54c-3.3,0-6-2.7-6-6V54
	c0-3.3,2.7-6,6-6h308C365.3,48,368,50.7,368,54z M464,150v308c0,3.3-2.7,6-6,6H150c-3.3,0-6-2.7-6-6V150c0-3.3,2.7-6,6-6h308
	C461.3,144,464,146.7,464,150z"/>
</svg>
