<?xml version="1.0" encoding="utf-8"?>
<svg xmlns="http://www.w3.org/2000/svg" xmlns:xlink="http://www.w3.org/1999/xlink" x="0px" y="0px"
	 viewBox="0 0 465 465">
<path d="M390.2,337.6V127.4c0-18.1-4.2-53-32.1-82.8C330.4,15,288.2,0,232.5,0s-97.9,15-125.6,44.6c-27.9,29.8-32.1,64.6-32.1,82.8
	v210.2c0,18.1,4.2,53,32.1,82.8c27.7,29.6,70,44.6,125.6,44.6s97.9-15,125.6-44.6C386.1,390.6,390.2,355.7,390.2,337.6z M253.4,322
	v40.7c0,10.5-9.3,19-20.9,19s-20.9-8.5-20.9-19V322c0-10.5,9.3-19,20.9-19S253.4,311.5,253.4,322z M373.7,337.6
	c0,18.4-6.6,108.5-133,112.3v-54c16.6-3.4,29.1-17,29.1-33.2V322c0-16.2-12.5-29.7-29.1-33.2l0,0c-1.8-0.5-3.3-0.5-7.9-0.7
	c-4.1-0.2-7.7,0.8-8.6,0.7l0,0c-16.6,3.4-29.1,17-29.1,33.2v40.7c0,16.2,12.5,29.7,29.1,33.2v54c-126.5-3.8-133-93.9-133-112.3
	V127.4C91.3,108.6,98.1,15,232.5,15s141.2,93.6,141.2,112.4V337.6z"/>
</svg>
