<?xml version="1.0" encoding="utf-8"?>
<!-- Generator: Adobe Illustrator 22.0.1, SVG Export Plug-In . SVG Version: 6.00 Build 0)  -->
<svg version="1.1" id="Слой_1" xmlns="http://www.w3.org/2000/svg" xmlns:xlink="http://www.w3.org/1999/xlink" x="0px" y="0px"
	 viewBox="0 0 239.3 239.3" style="enable-background:new 0 0 239.3 239.3;" xml:space="preserve">
<path d="M225.5,134.3c-12.2-12-47-8.7-64.4-6.5c-17.2-10.5-28.7-25-36.8-46.3
	c3.9-16.1,10.1-40.6,5.4-56c-4.2-26.2-37.8-23.6-42.6-5.9c-4.4,16.1-0.4,38.5,7,67.1c-10,23.9-24.9,56-35.4,74.4
	c-20,10.3-47,26.2-51,46.2c-3.3,15.8,26,55.2,76.1-31.2c22.4-7.4,46.8-16.5,68.4-20.1c18.9,10.2,41,17,55.8,17
	C233.5,173,236,144.8,225.5,134.3z M27.4,212.1c5.1-13.7,24.5-29.5,30.4-35C38.8,207.4,27.4,212.8,27.4,212.1z M109,21.5
	c7.4,0,6.7,32.1,1.8,40.8C106.4,48.4,106.5,21.5,109,21.5z M84.6,158.1c9.7-16.9,18-37,24.7-54.7c8.3,15.1,18.9,27.2,30.1,35.5
	C118.6,143.2,100.5,152,84.6,158.1z M216.2,153.1c0,0-5,6-37.3-7.8C214,142.7,219.8,150.7,216.2,153.1z"/>
</svg>
