<?xml version="1.0" encoding="UTF-8"?><!DOCTYPE svg PUBLIC "-//W3C//DTD SVG 1.1//EN" "http://www.w3.org/Graphics/SVG/1.1/DTD/svg11.dtd"><svg xmlns="http://www.w3.org/2000/svg"><symbol id="icon-arrow-down" viewBox="0 0 21.825 21.825">
    <path d="M16.791 13.254a1.112 1.112 0 0 1 1.587 0 1.14 1.14 0 0 1 0 1.587l-6.65 6.651a1.14 1.14 0 0 1-.809.333c-.317 0-.603-.127-.81-.333l-6.65-6.651c-.444-.444-.444-1.143 0-1.587s1.143-.444 1.587 0l4.746 4.762V1.111A1.116 1.116 0 0 1 10.918 0c.619 0 1.111.492 1.111 1.111v16.904l4.762-4.761z"/>
</symbol><symbol id="icon-bed" viewBox="0 0 37 32">
    <title>
        bed
    </title>
    <path d="M4.576 18.272h30.848q.48 0 .8.352t.352.8v8H32v-4.576H4.576v4.576H0V5.728q0-.48.352-.832t.8-.32h2.272q.48 0 .8.32t.352.832v12.544zm10.272-5.696q0-1.888-1.344-3.232T10.272 8 7.04 9.344t-1.312 3.232 1.312 3.232 3.232 1.344 3.232-1.344 1.344-3.232zm21.728 4.576V16q0-2.848-2.016-4.864t-4.832-1.984H17.152q-.48 0-.8.32t-.352.8v6.88h20.576z"/>
</symbol><symbol id="icon-behance" viewBox="0 0 576 512">
    <path d="M232 237.2c31.8-15.2 48.4-38.2 48.4-74 0-70.6-52.6-87.8-113.3-87.8H0v354.4h171.8c64.4 0 124.9-30.9 124.9-102.9 0-44.5-21.1-77.4-64.7-89.7zM77.9 135.9H151c28.1 0 53.4 7.9 53.4 40.5 0 30.1-19.7 42.2-47.5 42.2h-79v-82.7zm83.3 233.7H77.9V272h84.9c34.3 0 56 14.3 56 50.6 0 35.8-25.9 47-57.6 47zm358.5-240.7H376V94h143.7v34.9zM576 305.2c0-75.9-44.4-139.2-124.9-139.2-78.2 0-131.3 58.8-131.3 135.8 0 79.9 50.3 134.7 131.3 134.7 61.3 0 101-27.6 120.1-86.3H509c-6.7 21.9-34.3 33.5-55.7 33.5-41.3 0-63-24.2-63-65.3h185.1c.3-4.2.6-8.7.6-13.2zM390.4 274c2.3-33.7 24.7-54.8 58.5-54.8 35.4 0 53.2 20.8 56.2 54.8H390.4z"/>
</symbol><symbol id="icon-chevron-left" viewBox="0 0 320 512">
    <path d="M34.52 239.03L228.87 44.69c9.37-9.37 24.57-9.37 33.94 0l22.67 22.67c9.36 9.36 9.37 24.52.04 33.9L131.49 256l154.02 154.75c9.34 9.38 9.32 24.54-.04 33.9l-22.67 22.67c-9.37 9.37-24.57 9.37-33.94 0L34.52 272.97c-9.37-9.37-9.37-24.57 0-33.94z"/>
</symbol><symbol id="icon-chevron-right" viewBox="0 0 320 512">
    <path d="M285.476 272.971L91.132 467.314c-9.373 9.373-24.569 9.373-33.941 0l-22.667-22.667c-9.357-9.357-9.375-24.522-.04-33.901L188.505 256 34.484 101.255c-9.335-9.379-9.317-24.544.04-33.901l22.667-22.667c9.373-9.373 24.569-9.373 33.941 0L285.475 239.03c9.373 9.372 9.373 24.568.001 33.941z"/>
</symbol><symbol id="icon-clone" viewBox="0 0 512 512">
    <path d="M512 464V144c0-26.5-21.5-48-48-48h-48V48c0-26.5-21.5-48-48-48H48C21.5 0 0 21.5 0 48v320c0 26.5 21.5 48 48 48h48v48c0 26.5 21.5 48 48 48h320c26.5 0 48-21.5 48-48zM368 54v42H144c-26.5 0-48 21.5-48 48v224H54c-3.3 0-6-2.7-6-6V54c0-3.3 2.7-6 6-6h308c3.3 0 6 2.7 6 6zm96 96v308c0 3.3-2.7 6-6 6H150c-3.3 0-6-2.7-6-6V150c0-3.3 2.7-6 6-6h308c3.3 0 6 2.7 6 6z"/>
</symbol><symbol id="icon-facebook" viewBox="0 0 10 19">
    <title>
        facebook
    </title>
    <path d="M9.766.157v2.946H8.014c-.64 0-1.071.134-1.295.402-.223.268-.335.67-.335 1.205v2.11h3.27l-.435 3.303H6.384v8.471H2.97v-8.47H.123V6.82H2.97V4.387c0-1.384.387-2.457 1.161-3.22C4.904.404 5.934.023 7.222.023c1.093 0 1.941.045 2.544.134z" fill-rule="evenodd"/>
</symbol><symbol id="icon-file-pdf" viewBox="0 0 384 512">
    <path d="M369.9 97.9L286 14C277 5 264.8-.1 252.1-.1H48C21.5 0 0 21.5 0 48v416c0 26.5 21.5 48 48 48h288c26.5 0 48-21.5 48-48V131.9c0-12.7-5.1-25-14.1-34zM332.1 128H256V51.9l76.1 76.1zM48 464V48h160v104c0 13.3 10.7 24 24 24h104v288H48zm250.2-143.7c-12.2-12-47-8.7-64.4-6.5-17.2-10.5-28.7-25-36.8-46.3 3.9-16.1 10.1-40.6 5.4-56-4.2-26.2-37.8-23.6-42.6-5.9-4.4 16.1-.4 38.5 7 67.1-10 23.9-24.9 56-35.4 74.4-20 10.3-47 26.2-51 46.2-3.3 15.8 26 55.2 76.1-31.2 22.4-7.4 46.8-16.5 68.4-20.1 18.9 10.2 41 17 55.8 17 25.5 0 28-28.2 17.5-38.7zm-198.1 77.8c5.1-13.7 24.5-29.5 30.4-35-19 30.3-30.4 35.7-30.4 35zm81.6-190.6c7.4 0 6.7 32.1 1.8 40.8-4.4-13.9-4.3-40.8-1.8-40.8zm-24.4 136.6c9.7-16.9 18-37 24.7-54.7 8.3 15.1 18.9 27.2 30.1 35.5-20.8 4.3-38.9 13.1-54.8 19.2zm131.6-5s-5 6-37.3-7.8c35.1-2.6 40.9 5.4 37.3 7.8z"/>
</symbol><symbol id="icon-gem" viewBox="0 0 576 512">
    <path d="M464 0H112c-4 0-7.8 2-10 5.4L2 152.6c-2.9 4.4-2.6 10.2.7 14.2l276 340.8c4.8 5.9 13.8 5.9 18.6 0l276-340.8c3.3-4.1 3.6-9.8.7-14.2L474.1 5.4C471.8 2 468.1 0 464 0zm-19.3 48l63.3 96h-68.4l-51.7-96h56.8zm-202.1 0h90.7l51.7 96H191l51.6-96zm-111.3 0h56.8l-51.7 96H68l63.3-96zm-43 144h51.4L208 352 88.3 192zm102.9 0h193.6L288 435.3 191.2 192zM368 352l68.2-160h51.4L368 352z"/>
</symbol><symbol id="icon-map-marker-alt" viewBox="0 0 384 512">
    <path d="M172.268 501.67C26.97 291.031 0 269.413 0 192 0 85.961 85.961 0 192 0s192 85.961 192 192c0 77.413-26.97 99.031-172.268 309.67-9.535 13.774-29.93 13.773-39.464 0zM192 272c44.183 0 80-35.817 80-80s-35.817-80-80-80-80 35.817-80 80 35.817 80 80 80z"/>
</symbol><symbol id="icon-mobile-phone" viewBox="0 0 365.449 365.449">
    <path d="M281.507 10.85C274.279 3.614 265.71 0 255.813 0H109.637c-9.9 0-18.464 3.617-25.697 10.85-7.233 7.229-10.85 15.796-10.85 25.693v292.361c0 9.896 3.617 18.462 10.85 25.693 7.233 7.234 15.797 10.852 25.697 10.852h146.176c9.896 0 18.466-3.621 25.693-10.852 7.234-7.231 10.852-15.797 10.852-25.693V36.543c0-9.897-3.613-18.46-10.851-25.693zM159.885 36.543h45.685c3.046 0 4.565 1.523 4.565 4.569 0 3.045-1.52 4.57-4.565 4.57h-45.685c-3.045 0-4.568-1.525-4.568-4.57-.001-3.046 1.522-4.569 4.568-4.569zm38.976 308.493c-4.476 4.469-9.852 6.707-16.135 6.707-6.28 0-11.656-2.238-16.13-6.707-4.474-4.477-6.711-9.856-6.711-16.132 0-6.283 2.24-11.66 6.711-16.133 4.471-4.469 9.851-6.714 16.13-6.714 6.284 0 11.66 2.245 16.135 6.714 4.473 4.473 6.708 9.85 6.708 16.133s-2.238 11.656-6.708 16.132zm66.093-61.811c0 2.471-.903 4.62-2.714 6.424-1.813 1.807-3.949 2.707-6.42 2.707H109.637c-2.474 0-4.615-.903-6.423-2.707s-2.712-3.953-2.712-6.424V82.229c0-2.474.903-4.617 2.712-6.423 1.809-1.805 3.949-2.714 6.423-2.714h146.176c2.478 0 4.616.905 6.427 2.714 1.811 1.807 2.71 3.949 2.71 6.423v200.995h.004z"/>
</symbol><symbol id="icon-mouse" viewBox="0 0 465 465">
    <path d="M375.9 337.6V127.4c0-18.1-3.8-53-29.2-82.8C321.5 15 283.1 0 232.5 0s-89 15-114.2 44.6c-25.4 29.8-29.2 64.6-29.2 82.8v210.2c0 18.1 3.8 53 29.2 82.8C143.5 450 181.9 465 232.5 465s89-15 114.2-44.6c25.4-29.8 29.2-64.7 29.2-82.8zM251.5 322v40.7c0 10.5-8.5 19-19 19s-19-8.5-19-19V322c0-10.5 8.5-19 19-19s19 8.5 19 19zm109.4 15.6c0 18.4-6 108.5-120.9 112.3v-54c15.1-3.4 26.5-17 26.5-33.2V322c0-16.2-11.4-29.7-26.5-33.2-1.6-.5-3-.5-7.2-.7-3.7-.2-7 .8-7.8.7-15.1 3.4-26.5 17-26.5 33.2v40.7c0 16.2 11.4 29.7 26.5 33.2v54c-115-3.8-120.9-93.9-120.9-112.3V127.4c0-18.8 6.2-112.4 128.4-112.4s128.4 93.6 128.4 112.4v210.2z"/>
</symbol><symbol id="icon-paint-brush" viewBox="0 0 512 512">
    <path d="M167.02 309.34c-40.12 2.58-76.53 17.86-97.19 72.3-2.35 6.21-8 9.98-14.59 9.98-11.11 0-45.46-27.67-55.25-34.35C0 439.62 37.93 512 128 512c75.86 0 128-43.77 128-120.19 0-3.11-.65-6.08-.97-9.13l-88.01-73.34zM457.89 0c-15.16 0-29.37 6.71-40.21 16.45C213.27 199.05 192 203.34 192 257.09c0 13.7 3.25 26.76 8.73 38.7l63.82 53.18c7.21 1.8 14.64 3.03 22.39 3.03 62.11 0 98.11-45.47 211.16-256.46 7.38-14.35 13.9-29.85 13.9-45.99C512 20.64 486 0 457.89 0z"/>
</symbol><symbol id="icon-pdf-logo" viewBox="0 0 239.3 239.3">
    <path d="M225.5 134.3c-12.2-12-47-8.7-64.4-6.5-17.2-10.5-28.7-25-36.8-46.3 3.9-16.1 10.1-40.6 5.4-56-4.2-26.2-37.8-23.6-42.6-5.9-4.4 16.1-.4 38.5 7 67.1-10 23.9-24.9 56-35.4 74.4-20 10.3-47 26.2-51 46.2-3.3 15.8 26 55.2 76.1-31.2 22.4-7.4 46.8-16.5 68.4-20.1 18.9 10.2 41 17 55.8 17 25.5 0 28-28.2 17.5-38.7zM27.4 212.1c5.1-13.7 24.5-29.5 30.4-35-19 30.3-30.4 35.7-30.4 35zM109 21.5c7.4 0 6.7 32.1 1.8 40.8-4.4-13.9-4.3-40.8-1.8-40.8zM84.6 158.1c9.7-16.9 18-37 24.7-54.7 8.3 15.1 18.9 27.2 30.1 35.5-20.8 4.3-38.9 13.1-54.8 19.2zm131.6-5s-5 6-37.3-7.8c35.1-2.6 40.9 5.4 37.3 7.8z"/>
</symbol><symbol id="icon-twitter" viewBox="0 0 24 24">
    <path d="M22.46 6c-.77.35-1.6.58-2.46.69.88-.53 1.56-1.37 1.88-2.38-.83.5-1.75.85-2.72 1.05C18.37 4.5 17.26 4 16 4c-2.35 0-4.27 1.92-4.27 4.29 0 .34.04.67.11.98C8.28 9.09 5.11 7.38 3 4.79c-.37.63-.58 1.37-.58 2.15 0 1.49.75 2.81 1.91 3.56-.71 0-1.37-.2-1.95-.5v.03c0 2.08 1.48 3.82 3.44 4.21a4.22 4.22 0 0 1-1.93.07 4.28 4.28 0 0 0 4 2.98 8.521 8.521 0 0 1-5.33 1.84c-.34 0-.68-.02-1.02-.06C3.44 20.29 5.7 21 8.12 21 16 21 20.33 14.46 20.33 8.79c0-.19 0-.37-.01-.56.84-.6 1.56-1.36 2.14-2.23z"/>
</symbol></svg>