<?xml version="1.0" encoding="UTF-8"?><!DOCTYPE svg PUBLIC "-//W3C//DTD SVG 1.1//EN" "http://www.w3.org/Graphics/SVG/1.1/DTD/svg11.dtd"><svg xmlns="http://www.w3.org/2000/svg"><symbol id="icon-arrow-down" viewBox="0 0 21.825 21.825">
    <path d="M16.791 13.254a1.112 1.112 0 0 1 1.587 0 1.14 1.14 0 0 1 0 1.587l-6.65 6.651a1.14 1.14 0 0 1-.809.333c-.317 0-.603-.127-.81-.333l-6.65-6.651c-.444-.444-.444-1.143 0-1.587s1.143-.444 1.587 0l4.746 4.762V1.111A1.116 1.116 0 0 1 10.918 0c.619 0 1.111.492 1.111 1.111v16.904l4.762-4.761z"/>
</symbol><symbol id="icon-bed" viewBox="0 0 37 32">
    <title>
        bed
    </title>
    <path d="M4.576 18.272h30.848q.48 0 .8.352t.352.8v8H32v-4.576H4.576v4.576H0V5.728q0-.48.352-.832t.8-.32h2.272q.48 0 .8.32t.352.832v12.544zm10.272-5.696q0-1.888-1.344-3.232T10.272 8 7.04 9.344t-1.312 3.232 1.312 3.232 3.232 1.344 3.232-1.344 1.344-3.232zm21.728 4.576V16q0-2.848-2.016-4.864t-4.832-1.984H17.152q-.48 0-.8.32t-.352.8v6.88h20.576z"/>
</symbol><symbol id="icon-behance" viewBox="0 0 576 512">
    <path d="M232 237.2c31.8-15.2 48.4-38.2 48.4-74 0-70.6-52.6-87.8-113.3-87.8H0v354.4h171.8c64.4 0 124.9-30.9 124.9-102.9 0-44.5-21.1-77.4-64.7-89.7zM77.9 135.9H151c28.1 0 53.4 7.9 53.4 40.5 0 30.1-19.7 42.2-47.5 42.2h-79v-82.7zm83.3 233.7H77.9V272h84.9c34.3 0 56 14.3 56 50.6 0 35.8-25.9 47-57.6 47zm358.5-240.7H376V94h143.7v34.9zM576 305.2c0-75.9-44.4-139.2-124.9-139.2-78.2 0-131.3 58.8-131.3 135.8 0 79.9 50.3 134.7 131.3 134.7 61.3 0 101-27.6 120.1-86.3H509c-6.7 21.9-34.3 33.5-55.7 33.5-41.3 0-63-24.2-63-65.3h185.1c.3-4.2.6-8.7.6-13.2zM390.4 274c2.3-33.7 24.7-54.8 58.5-54.8 35.4 0 53.2 20.8 56.2 54.8H390.4z"/>
</symbol><symbol id="icon-chevron-left" viewBox="0 0 320 512">
    <path d="M34.52 239.03L228.87 44.69c9.37-9.37 24.57-9.37 33.94 0l22.67 22.67c9.36 9.36 9.37 24.52.04 33.9L131.49 256l154.02 154.75c9.34 9.38 9.32 24.54-.04 33.9l-22.67 22.67c-9.37 9.37-24.57 9.37-33.94 0L34.52 272.97c-9.37-9.37-9.37-24.57 0-33.94z"/>
</symbol><symbol id="icon-chevron-right" viewBox="0 0 320 512">
    <path d="M285.476 272.971L91.132 467.314c-9.373 9.373-24.569 9.373-33.941 0l-22.667-22.667c-9.357-9.357-9.375-24.522-.04-33.901L188.505 256 34.484 101.255c-9.335-9.379-9.317-24.544.04-33.901l22.667-22.667c9.373-9.373 24.569-9.373 33.941 0L285.475 239.03c9.373 9.372 9.373 24.568.001 33.941z"/>
</symbol><symbol id="icon-clone" viewBox="0 0 512 512">
    <path d="M512 464V144c0-26.5-21.5-48-48-48h-48V48c0-26.5-21.5-48-48-48H48C21.5 0 0 21.5 0 48v320c0 26.5 21.5 48 48 48h48v48c0 26.5 21.5 48 48 48h320c26.5 0 48-21.5 48-48zM368 54v42H144c-26.5 0-48 21.5-48 48v224H54c-3.3 0-6-2.7-6-6V54c0-3.3 2.7-6 6-6h308c3.3 0 6 2.7 6 6zm96 96v308c0 3.3-2.7 6-6 6H150c-3.3 0-6-2.7-6-6V150c0-3.3 2.7-6 6-6h308c3.3 0 6 2.7 6 6z"/>
</symbol><symbol id="icon-code" viewBox="0 0 522.468 522.469">
    <path d="M325.762 70.513l-17.706-4.854c-2.279-.76-4.524-.521-6.707.715-2.19 1.237-3.669 3.094-4.429 5.568L190.426 440.53c-.76 2.475-.522 4.809.715 6.995 1.237 2.19 3.09 3.665 5.568 4.425l17.701 4.856c2.284.766 4.521.526 6.71-.712 2.19-1.243 3.666-3.094 4.425-5.564L332.042 81.936c.759-2.474.523-4.808-.716-6.999-1.238-2.19-3.089-3.665-5.564-4.424z"/>
    <path d="M166.167 142.465c0-2.474-.953-4.665-2.856-6.567l-14.277-14.276c-1.903-1.903-4.093-2.857-6.567-2.857s-4.665.955-6.567 2.857L2.856 254.666C.95 256.569 0 258.759 0 261.233s.953 4.664 2.856 6.566l133.043 133.044c1.902 1.906 4.089 2.854 6.567 2.854s4.665-.951 6.567-2.854l14.277-14.268c1.903-1.902 2.856-4.093 2.856-6.57 0-2.471-.953-4.661-2.856-6.563L51.107 261.233l112.204-112.201c1.906-1.902 2.856-4.093 2.856-6.567z"/>
    <path d="M519.614 254.663L386.567 121.619c-1.902-1.902-4.093-2.857-6.563-2.857-2.478 0-4.661.955-6.57 2.857l-14.271 14.275c-1.902 1.903-2.851 4.09-2.851 6.567s.948 4.665 2.851 6.567l112.206 112.204-112.206 112.21c-1.902 1.902-2.851 4.093-2.851 6.563 0 2.478.948 4.668 2.851 6.57l14.271 14.268c1.909 1.906 4.093 2.854 6.57 2.854 2.471 0 4.661-.951 6.563-2.854L519.614 267.8c1.903-1.902 2.854-4.096 2.854-6.57 0-2.475-.951-4.665-2.854-6.567z"/>
</symbol><symbol id="icon-download" viewBox="0 0 32.634 32.634">
    <path d="M16.317 32.634a.5.5 0 0 1-.5-.5V.5a.5.5 0 0 1 1 0v31.634a.5.5 0 0 1-.5.5z"/>
    <path d="M16.315 32.634a.504.504 0 0 1-.354-.146L3.428 19.951a.5.5 0 0 1 .707-.707l12.179 12.183 12.184-12.183a.5.5 0 0 1 .707.707L16.668 32.487a.498.498 0 0 1-.353.147z"/>
</symbol><symbol id="icon-facebook" viewBox="0 0 10 19">
    <title>
        facebook
    </title>
    <path d="M9.766.157v2.946H8.014c-.64 0-1.071.134-1.295.402-.223.268-.335.67-.335 1.205v2.11h3.27l-.435 3.303H6.384v8.471H2.97v-8.47H.123V6.82H2.97V4.387c0-1.384.387-2.457 1.161-3.22C4.904.404 5.934.023 7.222.023c1.093 0 1.941.045 2.544.134z" fill-rule="evenodd"/>
</symbol><symbol id="icon-file-pdf" viewBox="0 0 384 512">
    <path d="M369.9 97.9L286 14C277 5 264.8-.1 252.1-.1H48C21.5 0 0 21.5 0 48v416c0 26.5 21.5 48 48 48h288c26.5 0 48-21.5 48-48V131.9c0-12.7-5.1-25-14.1-34zM332.1 128H256V51.9l76.1 76.1zM48 464V48h160v104c0 13.3 10.7 24 24 24h104v288H48zm250.2-143.7c-12.2-12-47-8.7-64.4-6.5-17.2-10.5-28.7-25-36.8-46.3 3.9-16.1 10.1-40.6 5.4-56-4.2-26.2-37.8-23.6-42.6-5.9-4.4 16.1-.4 38.5 7 67.1-10 23.9-24.9 56-35.4 74.4-20 10.3-47 26.2-51 46.2-3.3 15.8 26 55.2 76.1-31.2 22.4-7.4 46.8-16.5 68.4-20.1 18.9 10.2 41 17 55.8 17 25.5 0 28-28.2 17.5-38.7zm-198.1 77.8c5.1-13.7 24.5-29.5 30.4-35-19 30.3-30.4 35.7-30.4 35zm81.6-190.6c7.4 0 6.7 32.1 1.8 40.8-4.4-13.9-4.3-40.8-1.8-40.8zm-24.4 136.6c9.7-16.9 18-37 24.7-54.7 8.3 15.1 18.9 27.2 30.1 35.5-20.8 4.3-38.9 13.1-54.8 19.2zm131.6-5s-5 6-37.3-7.8c35.1-2.6 40.9 5.4 37.3 7.8z"/>
</symbol><symbol id="icon-gem" viewBox="0 0 576 512">
    <path d="M464 0H112c-4 0-7.8 2-10 5.4L2 152.6c-2.9 4.4-2.6 10.2.7 14.2l276 340.8c4.8 5.9 13.8 5.9 18.6 0l276-340.8c3.3-4.1 3.6-9.8.7-14.2L474.1 5.4C471.8 2 468.1 0 464 0zm-19.3 48l63.3 96h-68.4l-51.7-96h56.8zm-202.1 0h90.7l51.7 96H191l51.6-96zm-111.3 0h56.8l-51.7 96H68l63.3-96zm-43 144h51.4L208 352 88.3 192zm102.9 0h193.6L288 435.3 191.2 192zM368 352l68.2-160h51.4L368 352z"/>
</symbol><symbol id="icon-light-bulb" viewBox="0 0 438.536 438.536">
    <path d="M352.733 75.226c-8.466-16.271-19.599-29.787-33.394-40.541-13.801-10.752-29.413-19.223-46.821-25.41C255.1 3.094 237.349 0 219.266 0s-35.832 3.09-53.247 9.276c-17.417 6.187-33.025 14.657-46.826 25.41-13.796 10.754-24.932 24.267-33.402 40.541-8.47 16.274-12.703 33.83-12.703 52.677 0 29.502 9.805 55.006 29.409 76.516 8.567 9.324 15.656 17.604 21.271 24.838 5.617 7.228 11.279 16.316 16.989 27.261 5.708 10.944 8.945 21.176 9.707 30.696-8.947 5.332-13.418 13.135-13.418 23.415 0 7.042 2.378 13.134 7.139 18.274-4.76 5.14-7.139 11.231-7.139 18.273 0 9.897 4.285 17.604 12.85 23.131-2.478 4.373-3.715 8.847-3.715 13.415 0 8.754 2.996 15.516 8.992 20.27 5.992 4.757 13.369 7.139 22.126 7.139 3.806 8.374 9.519 15.037 17.13 19.985s15.891 7.419 24.838 7.419c8.949 0 17.227-2.471 24.838-7.419 7.614-4.948 13.329-11.611 17.135-19.985 8.754 0 16.132-2.382 22.124-7.139 5.995-4.754 8.99-11.516 8.99-20.27 0-4.568-1.239-9.042-3.717-13.415 8.562-5.523 12.851-13.233 12.851-23.131 0-7.042-2.382-13.134-7.139-18.273 4.757-5.141 7.139-11.232 7.139-18.274 0-10.28-4.474-18.083-13.422-23.415.763-9.521 4-19.752 9.708-30.696 5.719-10.944 11.376-20.033 16.995-27.261 5.619-7.234 12.706-15.515 21.265-24.838 19.605-21.51 29.414-47.014 29.414-76.516-.001-18.848-4.237-36.404-12.715-52.678zm-43.249 104.066a1264.349 1264.349 0 0 1-8.709 9.421c-3.898 4.187-6.8 7.324-8.703 9.419-24.362 29.126-37.78 57.482-40.255 85.078h-65.1c-2.474-27.596-15.891-55.952-40.256-85.078a1119.114 1119.114 0 0 0-8.709-9.419c-3.899-4.189-6.805-7.325-8.708-9.421-12.941-15.037-19.414-32.168-19.414-51.389 0-13.706 3.284-26.458 9.851-38.262 6.571-11.801 15.136-21.458 25.697-28.979 10.562-7.521 22.266-13.418 35.116-17.701 12.847-4.286 25.837-6.423 38.972-6.423s26.125 2.137 38.971 6.423c12.847 4.283 24.551 10.181 35.115 17.701 10.561 7.52 19.13 17.181 25.693 28.979 6.563 11.803 9.853 24.556 9.853 38.262 0 19.221-6.471 36.352-19.414 51.389z"/>
    <path d="M247.674 86.795c-9.418-3.046-18.891-4.57-28.404-4.57-2.474 0-4.615.9-6.423 2.712-1.809 1.809-2.712 3.949-2.712 6.423s.904 4.615 2.712 6.423c1.809 1.805 3.949 2.712 6.423 2.712 9.9 0 19.985 2.38 30.272 7.135 10.273 4.758 15.406 11.516 15.406 20.273 0 2.473.9 4.618 2.711 6.423 1.813 1.804 3.949 2.708 6.42 2.708 2.478 0 4.616-.901 6.427-2.708 1.811-1.809 2.71-3.951 2.71-6.423 0-9.9-3.572-18.464-10.704-25.693-7.132-7.23-15.417-12.375-24.838-15.415z"/>
</symbol><symbol id="icon-map-marker-alt" viewBox="0 0 384 512">
    <path d="M172.268 501.67C26.97 291.031 0 269.413 0 192 0 85.961 85.961 0 192 0s192 85.961 192 192c0 77.413-26.97 99.031-172.268 309.67-9.535 13.774-29.93 13.773-39.464 0zM192 272c44.183 0 80-35.817 80-80s-35.817-80-80-80-80 35.817-80 80 35.817 80 80 80z"/>
</symbol><symbol id="icon-mobile-phone" viewBox="0 0 365.449 365.449">
    <path d="M281.507 10.85C274.279 3.614 265.71 0 255.813 0H109.637c-9.9 0-18.464 3.617-25.697 10.85-7.233 7.229-10.85 15.796-10.85 25.693v292.361c0 9.896 3.617 18.462 10.85 25.693 7.233 7.234 15.797 10.852 25.697 10.852h146.176c9.896 0 18.466-3.621 25.693-10.852 7.234-7.231 10.852-15.797 10.852-25.693V36.543c0-9.897-3.613-18.46-10.851-25.693zM159.885 36.543h45.685c3.046 0 4.565 1.523 4.565 4.569 0 3.045-1.52 4.57-4.565 4.57h-45.685c-3.045 0-4.568-1.525-4.568-4.57-.001-3.046 1.522-4.569 4.568-4.569zm38.976 308.493c-4.476 4.469-9.852 6.707-16.135 6.707-6.28 0-11.656-2.238-16.13-6.707-4.474-4.477-6.711-9.856-6.711-16.132 0-6.283 2.24-11.66 6.711-16.133 4.471-4.469 9.851-6.714 16.13-6.714 6.284 0 11.66 2.245 16.135 6.714 4.473 4.473 6.708 9.85 6.708 16.133s-2.238 11.656-6.708 16.132zm66.093-61.811c0 2.471-.903 4.62-2.714 6.424-1.813 1.807-3.949 2.707-6.42 2.707H109.637c-2.474 0-4.615-.903-6.423-2.707s-2.712-3.953-2.712-6.424V82.229c0-2.474.903-4.617 2.712-6.423 1.809-1.805 3.949-2.714 6.423-2.714h146.176c2.478 0 4.616.905 6.427 2.714 1.811 1.807 2.71 3.949 2.71 6.423v200.995h.004z"/>
</symbol><symbol id="icon-mouse" viewBox="0 0 465 465">
    <path d="M375.9 337.6V127.4c0-18.1-3.8-53-29.2-82.8C321.5 15 283.1 0 232.5 0s-89 15-114.2 44.6c-25.4 29.8-29.2 64.6-29.2 82.8v210.2c0 18.1 3.8 53 29.2 82.8C143.5 450 181.9 465 232.5 465s89-15 114.2-44.6c25.4-29.8 29.2-64.7 29.2-82.8zM251.5 322v40.7c0 10.5-8.5 19-19 19s-19-8.5-19-19V322c0-10.5 8.5-19 19-19s19 8.5 19 19zm109.4 15.6c0 18.4-6 108.5-120.9 112.3v-54c15.1-3.4 26.5-17 26.5-33.2V322c0-16.2-11.4-29.7-26.5-33.2-1.6-.5-3-.5-7.2-.7-3.7-.2-7 .8-7.8.7-15.1 3.4-26.5 17-26.5 33.2v40.7c0 16.2 11.4 29.7 26.5 33.2v54c-115-3.8-120.9-93.9-120.9-112.3V127.4c0-18.8 6.2-112.4 128.4-112.4s128.4 93.6 128.4 112.4v210.2z"/>
</symbol><symbol id="icon-mouse_1" viewBox="0 0 465 465">
    <path d="M390.2 337.6V127.4c0-18.1-4.2-53-32.1-82.8C330.4 15 288.2 0 232.5 0s-97.9 15-125.6 44.6C79 74.4 74.8 109.2 74.8 127.4v210.2c0 18.1 4.2 53 32.1 82.8 27.7 29.6 70 44.6 125.6 44.6s97.9-15 125.6-44.6c28-29.8 32.1-64.7 32.1-82.8zM253.4 322v40.7c0 10.5-9.3 19-20.9 19s-20.9-8.5-20.9-19V322c0-10.5 9.3-19 20.9-19s20.9 8.5 20.9 19zm120.3 15.6c0 18.4-6.6 108.5-133 112.3v-54c16.6-3.4 29.1-17 29.1-33.2V322c0-16.2-12.5-29.7-29.1-33.2-1.8-.5-3.3-.5-7.9-.7-4.1-.2-7.7.8-8.6.7-16.6 3.4-29.1 17-29.1 33.2v40.7c0 16.2 12.5 29.7 29.1 33.2v54c-126.5-3.8-133-93.9-133-112.3V127.4C91.3 108.6 98.1 15 232.5 15s141.2 93.6 141.2 112.4v210.2z"/>
</symbol><symbol id="icon-paint-brush" viewBox="0 0 512 512">
    <path d="M167.02 309.34c-40.12 2.58-76.53 17.86-97.19 72.3-2.35 6.21-8 9.98-14.59 9.98-11.11 0-45.46-27.67-55.25-34.35C0 439.62 37.93 512 128 512c75.86 0 128-43.77 128-120.19 0-3.11-.65-6.08-.97-9.13l-88.01-73.34zM457.89 0c-15.16 0-29.37 6.71-40.21 16.45C213.27 199.05 192 203.34 192 257.09c0 13.7 3.25 26.76 8.73 38.7l63.82 53.18c7.21 1.8 14.64 3.03 22.39 3.03 62.11 0 98.11-45.47 211.16-256.46 7.38-14.35 13.9-29.85 13.9-45.99C512 20.64 486 0 457.89 0z"/>
</symbol><symbol id="icon-path2" viewBox="0 0 285.5 163.5">
    <style>
        .st0{opacity:.502;fill:none;stroke:#91c84c;enable-background:new}
    </style>
    <path class="st0" d="M.5 161.5s11.2-85.6 81-124.8c72.2-40.6 203-35 203-35"/>
</symbol><symbol id="icon-pdf-logo" viewBox="0 0 239.3 239.3">
    <path d="M225.5 134.3c-12.2-12-47-8.7-64.4-6.5-17.2-10.5-28.7-25-36.8-46.3 3.9-16.1 10.1-40.6 5.4-56-4.2-26.2-37.8-23.6-42.6-5.9-4.4 16.1-.4 38.5 7 67.1-10 23.9-24.9 56-35.4 74.4-20 10.3-47 26.2-51 46.2-3.3 15.8 26 55.2 76.1-31.2 22.4-7.4 46.8-16.5 68.4-20.1 18.9 10.2 41 17 55.8 17 25.5 0 28-28.2 17.5-38.7zM27.4 212.1c5.1-13.7 24.5-29.5 30.4-35-19 30.3-30.4 35.7-30.4 35zM109 21.5c7.4 0 6.7 32.1 1.8 40.8-4.4-13.9-4.3-40.8-1.8-40.8zM84.6 158.1c9.7-16.9 18-37 24.7-54.7 8.3 15.1 18.9 27.2 30.1 35.5-20.8 4.3-38.9 13.1-54.8 19.2zm131.6-5s-5 6-37.3-7.8c35.1-2.6 40.9 5.4 37.3 7.8z"/>
</symbol><symbol id="icon-settings" viewBox="0 0 548.172 548.172">
    <path d="M333.186 376.438c0-1.902-.668-3.806-1.999-5.708-10.66-12.758-19.223-23.702-25.697-32.832 3.997-7.803 7.043-15.037 9.131-21.693l44.255-6.852c1.718-.194 3.241-1.19 4.572-2.994 1.331-1.816 1.991-3.668 1.991-5.571v-52.822c0-2.091-.66-3.949-1.991-5.564s-2.95-2.618-4.853-2.993l-43.4-6.567c-2.098-6.473-5.331-14.281-9.708-23.413 2.851-4.19 7.139-9.902 12.85-17.131 5.709-7.234 9.713-12.371 11.991-15.417 1.335-1.903 1.999-3.713 1.999-5.424 0-5.14-13.706-20.367-41.107-45.683-1.902-1.52-3.901-2.281-6.002-2.281-2.279 0-4.182.659-5.712 1.997l-33.691 25.41c-7.801-3.996-14.939-6.945-21.411-8.854l-6.567-43.68c-.187-1.903-1.14-3.571-2.853-4.997-1.714-1.427-3.617-2.142-5.713-2.142h-53.1c-4.377 0-7.232 2.284-8.564 6.851-2.286 8.757-4.473 23.416-6.567 43.968-8.183 2.664-15.511 5.71-21.982 9.136l-32.832-25.693c-1.903-1.335-3.901-1.997-5.996-1.997-3.621 0-11.138 5.614-22.557 16.846-11.421 11.228-19.229 19.698-23.413 25.409-1.334 1.525-1.997 3.428-1.997 5.712 0 1.711.662 3.614 1.997 5.708 10.657 12.756 19.221 23.7 25.694 32.832-3.996 7.808-7.04 15.037-9.132 21.698l-44.255 6.848c-1.715.19-3.236 1.188-4.57 2.993C.666 243.35 0 245.203 0 247.105v52.819c0 2.095.666 3.949 1.997 5.564 1.334 1.622 2.95 2.525 4.857 2.714l43.396 6.852c2.284 7.23 5.618 15.037 9.995 23.411-3.046 4.191-7.517 9.999-13.418 17.418-5.905 7.427-9.805 12.471-11.707 15.133-1.332 1.903-1.999 3.717-1.999 5.421 0 5.147 13.706 20.369 41.114 45.687 1.903 1.519 3.899 2.275 5.996 2.275 2.474 0 4.377-.66 5.708-1.995l33.689-25.406c7.801 3.997 14.939 6.943 21.413 8.847l6.567 43.684c.188 1.902 1.142 3.572 2.853 4.996 1.713 1.427 3.616 2.139 5.711 2.139h53.1c4.38 0 7.233-2.282 8.566-6.851 2.284-8.949 4.471-23.698 6.567-44.256a129.247 129.247 0 0 0 21.982-8.846l32.833 25.693c1.903 1.335 3.901 1.995 5.996 1.995 3.617 0 11.091-5.66 22.415-16.991 11.32-11.317 19.175-19.842 23.555-25.55 1.332-1.328 2-3.134 2-5.42zm-98.789-50.812c-14.272 14.27-31.499 21.408-51.673 21.408-20.179 0-37.406-7.139-51.678-21.408-14.274-14.277-21.412-31.505-21.412-51.68 0-20.174 7.138-37.401 21.412-51.675 14.272-14.275 31.5-21.411 51.678-21.411 20.174 0 37.401 7.135 51.673 21.411 14.277 14.274 21.413 31.501 21.413 51.675 0 20.175-7.135 37.403-21.413 51.68z"/>
    <path d="M505.628 391.29c-2.471-5.517-5.329-10.465-8.562-14.846 9.709-21.512 14.558-34.646 14.558-39.402 0-.753-.373-1.424-1.14-1.995-22.846-13.322-34.643-19.985-35.405-19.985l-1.711.574c-7.803 7.807-16.563 18.463-26.266 31.977-3.805-.379-6.656-.574-8.559-.574-1.909 0-4.76.195-8.569.574-2.655-4-7.61-10.427-14.842-19.273-7.23-8.846-11.611-13.277-13.134-13.277-.38 0-3.234 1.522-8.566 4.575a2562.197 2562.197 0 0 0-16.844 9.709c-5.906 3.433-9.229 5.328-9.992 5.711-.767.568-1.144 1.239-1.144 1.992 0 4.764 4.853 17.888 14.559 39.402-3.23 4.381-6.089 9.329-8.562 14.842-28.363 2.851-42.544 5.805-42.544 8.85v39.968c0 3.046 14.181 5.996 42.544 8.85 2.279 5.141 5.137 10.089 8.562 14.839-9.706 21.512-14.559 34.646-14.559 39.402 0 .76.377 1.431 1.144 1.999 23.216 13.514 35.022 20.27 35.402 20.27 1.522 0 5.903-4.473 13.134-13.419 7.231-8.948 12.18-15.413 14.842-19.41 3.806.373 6.66.564 8.569.564 1.902 0 4.754-.191 8.559-.564 2.659 3.997 7.611 10.462 14.842 19.41 7.231 8.946 11.608 13.419 13.135 13.419.38 0 12.187-6.759 35.405-20.27.767-.568 1.14-1.235 1.14-1.999 0-4.757-4.855-17.891-14.558-39.402 3.426-4.75 6.279-9.698 8.562-14.839 28.362-2.854 42.544-5.804 42.544-8.85v-39.968c0-3.046-14.182-6-42.544-8.854zm-41.258 54.672c-7.128 7.139-15.745 10.715-25.834 10.715-10.092 0-18.705-3.576-25.837-10.715-7.139-7.139-10.712-15.748-10.712-25.837 0-9.894 3.621-18.466 10.855-25.693 7.23-7.231 15.797-10.849 25.693-10.849 9.894 0 18.466 3.614 25.7 10.849 7.228 7.228 10.849 15.8 10.849 25.693-.006 10.089-3.572 18.698-10.714 25.837z"/>
    <path d="M505.628 98.931c-2.471-5.52-5.329-10.468-8.562-14.849 9.709-21.505 14.558-34.639 14.558-39.397 0-.758-.373-1.427-1.14-1.999-22.846-13.323-34.643-19.984-35.405-19.984l-1.711.57c-7.803 7.808-16.563 18.464-26.266 31.977-3.805-.378-6.656-.57-8.559-.57-1.909 0-4.76.192-8.569.57-2.655-3.997-7.61-10.42-14.842-19.27-7.23-8.852-11.611-13.276-13.134-13.276-.38 0-3.234 1.521-8.566 4.569a3047.873 3047.873 0 0 0-16.844 9.71c-5.906 3.428-9.229 5.33-9.992 5.708-.767.571-1.144 1.237-1.144 1.999 0 4.758 4.853 17.893 14.559 39.399-3.23 4.38-6.089 9.327-8.562 14.847-28.363 2.853-42.544 5.802-42.544 8.848v39.971c0 3.044 14.181 5.996 42.544 8.848 2.279 5.137 5.137 10.088 8.562 14.847-9.706 21.51-14.559 34.639-14.559 39.399 0 .757.377 1.426 1.144 1.997 23.216 13.513 35.022 20.27 35.402 20.27 1.522 0 5.903-4.471 13.134-13.418 7.231-8.947 12.18-15.415 14.842-19.414 3.806.378 6.66.571 8.569.571 1.902 0 4.754-.193 8.559-.571 2.659 3.999 7.611 10.466 14.842 19.414 7.231 8.947 11.608 13.418 13.135 13.418.38 0 12.187-6.757 35.405-20.27.767-.571 1.14-1.237 1.14-1.997 0-4.76-4.855-17.889-14.558-39.399 3.426-4.759 6.279-9.707 8.562-14.847 28.362-2.853 42.544-5.804 42.544-8.848v-39.971c0-3.046-14.182-5.996-42.544-8.852zm-41.258 54.674c-7.128 7.139-15.745 10.708-25.834 10.708-10.092 0-18.705-3.569-25.837-10.708-7.139-7.135-10.712-15.749-10.712-25.837 0-9.897 3.621-18.464 10.855-25.697 7.23-7.233 15.797-10.85 25.693-10.85 9.894 0 18.466 3.621 25.7 10.85 7.228 7.232 10.849 15.8 10.849 25.697-.006 10.088-3.572 18.702-10.714 25.837z"/>
</symbol><symbol id="icon-twitter" viewBox="0 0 24 24">
    <path d="M22.46 6c-.77.35-1.6.58-2.46.69.88-.53 1.56-1.37 1.88-2.38-.83.5-1.75.85-2.72 1.05C18.37 4.5 17.26 4 16 4c-2.35 0-4.27 1.92-4.27 4.29 0 .34.04.67.11.98C8.28 9.09 5.11 7.38 3 4.79c-.37.63-.58 1.37-.58 2.15 0 1.49.75 2.81 1.91 3.56-.71 0-1.37-.2-1.95-.5v.03c0 2.08 1.48 3.82 3.44 4.21a4.22 4.22 0 0 1-1.93.07 4.28 4.28 0 0 0 4 2.98 8.521 8.521 0 0 1-5.33 1.84c-.34 0-.68-.02-1.02-.06C3.44 20.29 5.7 21 8.12 21 16 21 20.33 14.46 20.33 8.79c0-.19 0-.37-.01-.56.84-.6 1.56-1.36 2.14-2.23z"/>
</symbol><symbol id="icon-user-shape" viewBox="0 0 438.529 438.529">
    <path d="M219.265 219.267c30.271 0 56.108-10.71 77.518-32.121 21.412-21.411 32.12-47.248 32.12-77.515 0-30.262-10.708-56.1-32.12-77.516C275.366 10.705 249.528 0 219.265 0S163.16 10.705 141.75 32.115c-21.414 21.416-32.121 47.253-32.121 77.516 0 30.267 10.707 56.104 32.121 77.515 21.416 21.411 47.251 32.121 77.515 32.121z"/>
    <path d="M419.258 335.036c-.668-9.609-2.002-19.985-3.997-31.121-1.999-11.136-4.524-21.457-7.57-30.978-3.046-9.514-7.139-18.794-12.278-27.836-5.137-9.041-11.037-16.748-17.703-23.127-6.666-6.377-14.801-11.465-24.406-15.271-9.617-3.805-20.229-5.711-31.84-5.711-1.711 0-5.709 2.046-11.991 6.139a2716.072 2716.072 0 0 1-21.266 13.708c-7.898 5.037-18.182 9.609-30.834 13.695-12.658 4.093-25.361 6.14-38.118 6.14-12.752 0-25.456-2.047-38.112-6.14-12.655-4.086-22.936-8.658-30.835-13.695a2784.143 2784.143 0 0 1-21.267-13.708c-6.283-4.093-10.278-6.139-11.991-6.139-11.61 0-22.222 1.906-31.833 5.711-9.613 3.806-17.749 8.898-24.412 15.271-6.661 6.379-12.562 14.086-17.699 23.127-5.137 9.042-9.229 18.326-12.275 27.836-3.045 9.521-5.568 19.842-7.566 30.978-2 11.136-3.332 21.505-3.999 31.121a427.742 427.742 0 0 0-.998 29.554c0 22.836 6.949 40.875 20.842 54.104 13.896 13.224 32.36 19.835 55.39 19.835h249.533c23.028 0 41.49-6.611 55.388-19.835 13.901-13.229 20.845-31.265 20.845-54.104-.002-10.088-.334-19.938-1.008-29.554z"/>
</symbol></svg>